<?xml version="1.0" standalone="no"?><!-- Generator: Gravit.io --><svg xmlns="http://www.w3.org/2000/svg" xmlns:xlink="http://www.w3.org/1999/xlink" style="isolation:isolate" viewBox="0 0 450 450" width="450" height="450"><defs><clipPath id="_clipPath_Z3ERwAmTpeEulBHir0yY6B5Nt3jtPYrl"><rect width="450" height="450"/></clipPath></defs><g clip-path="url(#_clipPath_Z3ERwAmTpeEulBHir0yY6B5Nt3jtPYrl)"><rect width="450" height="450" style="fill:rgb(0,0,0)"/><path d=" M 351 150 L 351 121.124 C 336.625 121.124 322.375 121.124 308.125 121.124 L 308.125 136.499 L 334.5 136.499 L 334.5 171.249 C 334.5 184.499 327.5 194.874 312.5 194.874 C 297.625 194.874 290.375 187.249 290.375 172.249 L 274.125 172.249 C 274.125 196.999 290.125 210.374 312.5 210.374 C 326.299 210.374 336.908 204.976 343.462 196.121 C 348.366 189.495 351 180.933 351 171.249 L 351 150 Z " fill="rgb(255,255,255)"/><path d=" M 92.938 165.624 C 92.938 141.063 112.877 121.124 137.438 121.124 C 161.998 121.124 181.938 141.063 181.938 165.624 C 181.938 190.184 161.998 210.124 137.438 210.124 C 112.877 210.124 92.938 190.184 92.938 165.624 Z " fill="rgb(255,255,255)"/><path d=" M 137.437 321.478 L 312.562 321.478 L 312.562 335.478 L 137.437 335.478 L 137.437 321.478 Z " fill="rgb(255,255,255)"/><path d=" M 124.938 165.999 C 124.938 158.548 130.987 152.499 138.438 152.499 C 145.888 152.499 151.938 158.548 151.938 165.999 C 151.938 173.449 145.888 179.499 138.438 179.499 C 130.987 179.499 124.938 173.449 124.938 165.999 Z " fill="rgb(10,11,13)"/></g></svg>